HIERARCHY
ROOT RootJoint
{
    OFFSET   0.000000   0.000000   0.000000
    CHANNELS 6 Xposition Yposition Zposition Xrotation Yrotation Zrotation
    JOINT pelvis_lowerback
    {
        OFFSET   0.000000   0.093605   0.000000
        CHANNELS 3 Xrotation Yrotation Zrotation
        JOINT lowerback_torso
        {
            OFFSET   0.000000   0.100000   0.000000
            CHANNELS 3 Xrotation Yrotation Zrotation
            JOINT torso_head
            {
                OFFSET   0.000000   0.282350   0.000000
                CHANNELS 3 Xrotation Yrotation Zrotation
                End Site
                {
                    OFFSET   0.000000   0.192650   0.000000
                }
            }
            JOINT rTorso_Clavicle
            {
                OFFSET  -0.001000   0.157500   0.000000
                CHANNELS 3 Xrotation Yrotation Zrotation
                JOINT rShoulder
                {
                    OFFSET  -0.117647   0.000000   0.000000
                    CHANNELS 3 Xrotation Yrotation Zrotation
                    JOINT rElbow
                    {
                        OFFSET  -0.245000   0.000000   0.000000
                        CHANNELS 3 Xrotation Yrotation Zrotation
                        JOINT rWrist
                        {
                            OFFSET  -0.240000   0.000000   0.000000
                            CHANNELS 3 Xrotation Yrotation Zrotation
                            End Site
                            {
                                OFFSET  -0.116353  -0.002500   0.000000
                            }
                        }
                    }
                }
            }
            JOINT lTorso_Clavicle
            {
                OFFSET   0.001000   0.157500   0.000000
                CHANNELS 3 Xrotation Yrotation Zrotation
                JOINT lShoulder
                {
                    OFFSET   0.117647   0.000000   0.000000
                    CHANNELS 3 Xrotation Yrotation Zrotation
                    JOINT lElbow
                    {
                        OFFSET   0.245000   0.000000   0.000000
                        CHANNELS 3 Xrotation Yrotation Zrotation
                        JOINT lWrist
                        {
                            OFFSET   0.240000   0.000000   0.000000
                            CHANNELS 3 Xrotation Yrotation Zrotation
                            End Site
                            {
                                OFFSET   0.116353  -0.002500   0.000000
                            }
                        }
                    }
                }
            }
        }
    }
    JOINT rHip
    {
        OFFSET  -0.100000  -0.051395   0.000000
        CHANNELS 3 Xrotation Yrotation Zrotation
        JOINT rKnee
        {
            OFFSET   0.000000  -0.410000   0.000000
            CHANNELS 3 Xrotation Yrotation Zrotation
            JOINT rAnkle
            {
                OFFSET   0.000000  -0.390000   0.000000
                CHANNELS 3 Xrotation Yrotation Zrotation
                JOINT rToeJoint
                {
                    OFFSET   0.000000  -0.050000   0.130000
                    CHANNELS 3 Xrotation Yrotation Zrotation
                    End Site
                    {
                        OFFSET  -0.010000   0.002000   0.060000
                    }
                }
            }
        }
    }
    JOINT lHip
    {
        OFFSET   0.100000  -0.051395   0.000000
        CHANNELS 3 Xrotation Yrotation Zrotation
        JOINT lKnee
        {
            OFFSET   0.000000  -0.410000   0.000000
            CHANNELS 3 Xrotation Yrotation Zrotation
            JOINT lAnkle
            {
                OFFSET   0.000000  -0.390000   0.000000
                CHANNELS 3 Xrotation Yrotation Zrotation
                JOINT lToeJoint
                {
                    OFFSET   0.000000  -0.050000   0.130000
                    CHANNELS 3 Xrotation Yrotation Zrotation
                    End Site
                    {
                        OFFSET   0.010000   0.002000   0.060000
                    }
                }
            }
        }
    }
}
MOTION
Frames: 17
Frame Time:   0.008333
 -2.376719   0.925631   3.975860   0.000000   0.000000   0.000000   0.000000   0.000000   0.000000   0.000000   0.000000   0.000000   0.000000   0.000000   0.000000   0.000000   0.000000   0.000000   0.000000   0.000000   0.000000   0.000000   0.000000   0.000000   0.000000   0.000000   0.000000   0.000000   0.000000   0.000000   0.000000   0.000000   0.000000   0.000000   0.000000   0.000000   0.000000   0.000000   0.000000   0.000000   0.000000   0.000000   0.000000   0.000000   0.000000   0.000000   0.000000   0.000000   0.000000   0.000000   0.000000   0.000000   0.000000   0.000000   0.000000   0.000000   0.000000   0.000000   0.000000   0.000000   0.000000   0.000000   0.000000
 -2.376438   0.926233   3.974543  -0.131570   0.184893  -0.174591   0.191353   0.000012   0.160267   0.354297   0.107462   0.254818  -0.132553   0.535904  -0.023910   0.290089  -0.740320   0.040929   0.877243   0.054219   2.114713   0.021310   1.013725  -0.014133   0.487787  -0.179152  -2.876265  -0.200112  -0.254336  -0.831462   0.419965  -0.310231  -1.940310   0.032460  -1.462742   0.008558   0.295990   0.929440   3.196750  -1.259531  -0.076859   0.219278   2.729718  -0.001066   0.002704  -1.836827  -0.236555   0.167424  -0.793045   0.001501   0.000870  -0.412721  -0.004856   0.109038   2.644478   0.001598   0.004141  -3.488545  -0.249565  -0.059126   0.550678   0.000554  -0.000327
 -2.376032   0.927171   3.973174  -0.411946   0.572334  -0.359156   0.459414  -0.129599   0.362127   0.846018   0.067355   0.530501  -0.208590   1.071386  -0.005496   0.580644  -1.463115   0.772226   1.737725   0.133880   4.772655   0.048769   1.984332  -0.025120   1.028449  -0.116165  -5.096676  -0.396986  -0.690391  -2.447308   0.797835  -0.819061  -4.483833   0.076118  -2.927907   0.016373   0.600681   1.290205   5.618185  -2.708344  -0.158560   0.471114   5.502979  -0.002158   0.010106  -3.544470  -0.464604   0.313338  -1.574336   0.002783   0.000089  -0.404364  -0.017678   0.173393   5.497804   0.005089   0.012346  -6.750919  -0.483580  -0.133592   0.918571   0.001005   0.000192
 -2.375608   0.927989   3.971850  -0.705675   1.104170  -0.529352   0.728771  -0.380934   0.564273   1.344846  -0.105606   0.786095  -0.269448   1.573808   0.031432   0.862465  -2.126021   1.954819   2.577707   0.255875   7.799052   0.075516   2.893607  -0.032445   1.562481   0.010740  -6.509434  -0.601869  -1.241165  -4.538028   1.115177  -1.428000  -7.289222   0.118987  -4.341933   0.022303   0.906940   1.319718   7.074166  -4.349552  -0.237403   0.728318   8.041537  -0.002724   0.019071  -5.138195  -0.680935   0.440860  -2.295061   0.003843  -0.001573  -0.078010  -0.029416   0.197558   8.298714   0.009723   0.021784  -9.789510  -0.698432  -0.218089   1.266308   0.001453   0.001072
 -2.375218   0.928349   3.970614  -0.980465   1.734808  -0.683619   0.989237  -0.729313   0.752225   1.819094  -0.382596   1.015573  -0.327671   2.042384   0.073360   1.135771  -2.736858   3.406042   3.399948   0.419909  11.076860   0.098429   3.743212  -0.036739   2.081586   0.161816  -7.303676  -0.821259  -1.858551  -6.881985   1.372219  -2.095898 -10.192855   0.155559  -5.692372   0.026721   1.215086   1.149419   7.818399  -6.162850  -0.316543   0.982350  10.324663  -0.002714   0.027519  -6.628933  -0.885675   0.552822  -2.967915   0.004750  -0.003535   0.505403  -0.039816   0.201031  11.005927   0.014850   0.030698 -12.622798  -0.894722  -0.308685   1.587315   0.001831   0.002028
 -2.374841   0.927986   3.969499  -1.229886   2.426063  -0.826803   1.238634  -1.153854   0.930166   2.263711  -0.741687   1.236611  -0.383920   2.479360   0.109481   1.403572  -3.311476   5.054298   4.159390   0.616363  14.352887   0.115597   4.534614  -0.038300   2.582638   0.321224  -7.582014  -1.058227  -2.506108  -9.343863   1.571808  -2.792657 -13.098763   0.183561  -6.973763   0.030042   1.521142   0.856725   8.076092  -8.116728  -0.398738   1.225482  12.370813  -0.002206   0.034375  -8.023557  -1.079122   0.651683  -3.594937   0.005492  -0.005417   1.304377  -0.049701   0.197122  13.613447   0.020081   0.038094 -15.265325  -1.073552  -0.402264   1.881948   0.002133   0.002891
 -2.374464   0.926701   3.968527  -1.453679   3.144891  -0.960213   1.475770  -1.636755   1.102015   2.679252  -1.164395   1.452297  -0.437380   2.886907   0.141162   1.667842  -3.861204   6.791376   4.859020   0.832140  17.550334   0.126842   5.269578  -0.037767   3.061116   0.473174  -7.525041  -1.313336  -3.158507 -11.828618   1.718343  -3.496759 -15.942941   0.202669  -8.184528   0.032567   1.820733   0.489866   8.020095 -10.179389  -0.485277   1.450936  14.203208  -0.001417   0.039199  -9.327968  -1.261730   0.739393  -4.176754   0.006065  -0.006988   2.284112  -0.059703   0.191676  16.120810   0.025064   0.043458 -17.729970  -1.236302  -0.496568   2.153137   0.002365   0.003578
 -2.374347   0.923848   3.966670  -1.513786   3.447400  -1.108080   1.854742  -1.696936   1.309260   2.940063  -1.558951   1.534299  -0.661094   3.063043   0.104492   1.936784  -4.051435   8.073713   5.593957   0.759956  20.568543   0.140574   6.241514  -0.041170   3.334779   0.491934  -6.544046  -1.584755  -3.772766 -13.360440   1.719674  -4.429476 -18.913567   0.217230  -9.547850   0.037193   2.024404   0.225739   7.193483 -12.902230  -0.718072   1.603382  16.817283  -0.000374   0.035673 -10.341354  -1.733264   0.728260  -4.307083   0.004934  -0.005266   3.563053  -0.003287   0.359502  16.953214   0.021229   0.036879 -19.572346  -1.404997  -0.689215   2.659938   0.002796   0.003577
 -2.374406   0.919658   3.964396  -1.537736   3.819272  -1.255392   2.313443  -1.792424   1.492036   3.209224  -1.965635   1.600938  -0.874409   3.219665   0.051859   2.166284  -4.153387   9.103369   6.267028   0.765912  23.273645   0.144785   7.165825  -0.043514   3.606220   0.583547  -5.648155  -1.905352  -4.450747 -14.568294   1.650421  -5.388960 -21.541401   0.220660 -10.862710   0.041745   2.249154  -0.225558   6.500145 -15.665520  -0.971694   1.646226  19.275958   0.002088   0.033302 -11.277414  -2.183478   0.707149  -4.384086   0.003947  -0.004078   4.784491   0.028903   0.678631  17.525292   0.017113   0.031382 -21.301825  -1.556403  -0.874137   3.128219   0.002420   0.003726
 -2.374566   0.914274   3.961984  -1.552960   4.247706  -1.391149   2.813240  -1.912105   1.650781   3.494697  -2.378008   1.659131  -1.060803   3.365314  -0.002845   2.363596  -4.210725   9.941275   6.882551   0.819913  25.709753   0.142689   8.038960  -0.044562   3.873385   0.722221  -4.962908  -2.263690  -5.149920 -15.558158   1.523713  -6.336813 -23.892505   0.216727 -12.114986   0.045137   2.488606  -0.792484   6.052794 -18.371232  -1.199782   1.580740  21.526046   0.005402   0.031917 -12.152152  -2.604725   0.679304  -4.452567   0.003126  -0.003204   5.944428   0.062584   1.109075  18.019990   0.013387   0.027105 -22.918879  -1.689430  -1.050074   3.553813   0.001631   0.004001
 -2.374789   0.907801   3.959605  -1.565596   4.699856  -1.513015   3.325669  -2.038733   1.790248   3.785960  -2.781517   1.707917  -1.223444   3.501271  -0.056041   2.538600  -4.248323  10.630240   7.448622   0.898280  27.915909   0.136517   8.858171  -0.044342   4.131516   0.875942  -4.457691  -2.642137  -5.834803 -16.393022   1.354804  -7.246499 -26.021701   0.208115 -13.298632   0.046949   2.731760  -1.415892   5.796243 -20.988148  -1.395092   1.423359  23.587910   0.008870   0.030577 -12.970237  -2.998220   0.646557  -4.516296   0.002447  -0.002544   7.053643   0.102021   1.620695  18.472793   0.010129   0.023715 -24.428947  -1.806477  -1.216550   3.944588   0.000685   0.004243
 -2.375060   0.900321   3.957353  -1.578134   5.151583  -1.621124   3.832898  -2.161384   1.912708   4.074841  -3.165751   1.746031  -1.367390   3.628300  -0.106413   2.698957  -4.279969  11.202830   7.972443   0.986708  29.923828   0.127869   9.623017  -0.043059   4.378162   1.022344  -4.088959  -3.024635  -6.483553 -17.114938   1.157747  -8.101786 -27.968442   0.196653 -14.410720   0.047195   2.971468  -2.053056   5.670029 -23.499846  -1.557064   1.194869  25.484026   0.011988   0.028865 -13.735279  -3.365668   0.610357  -4.575958   0.001891  -0.002035   8.117359   0.147862   2.189838  18.895149   0.007331   0.020949 -25.838633  -1.909893  -1.373483   4.304197  -0.000264   0.004370
 -2.375369   0.891899   3.955276  -1.592312   5.587341  -1.716070   4.325033  -2.273508   2.018774   4.357020  -3.524528   1.772450  -1.496767   3.747015  -0.153568   2.849693  -4.312303  11.683699   8.459620   1.077406  31.759005   0.117880  10.334957  -0.040985   4.612615   1.149599  -3.821790  -3.398953  -7.085035 -17.752172   0.944044  -8.894770 -29.761123   0.183601 -15.451000   0.046115   3.203697  -2.676083   5.629554 -25.896455  -1.687310   0.915449  27.233304   0.014472   0.026714 -14.450629  -3.708680   0.571861  -4.631940   0.001440  -0.001632   9.136320   0.200079   2.796902  19.292346   0.004967   0.018625 -27.154443  -2.001661  -1.521053   4.635163  -0.001125   0.004359
 -2.375954   0.882385   3.952620  -1.462638   6.132765  -1.799232   5.001295  -2.577532   2.098308   4.373325  -3.899756   1.720523  -1.717056   3.740128   0.000105   2.794312  -4.329897  11.934958   8.786386   1.236959  33.190406   0.107071  11.175806  -0.038098   4.783036   1.071510  -3.182780  -3.598672  -7.530878 -17.875057   0.809154  -9.628803 -31.195834   0.171312 -16.669428   0.048782   3.381432  -3.248204   5.142449 -28.446664  -1.876827   0.466318  29.289235   0.018536   0.024970 -14.993710  -4.123989   0.632329  -4.582306   0.001212  -0.001345   9.878516   0.455485   3.565325  19.078608   0.004511   0.013251 -27.917863  -1.715165  -1.408410   5.093944  -0.003840   0.007471
 -2.376694   0.871990   3.949834  -1.317152   6.738921  -1.893207   5.706540  -2.861068   2.174869   4.390182  -4.230882   1.670958  -1.920587   3.719908   0.148787   2.709426  -4.307882  11.977206   9.064435   1.408072  34.380447   0.094326  11.976006  -0.035904   4.939857   1.045790  -2.787487  -3.817506  -7.941293 -17.770044   0.659310 -10.306007 -32.376006   0.155546 -17.813271   0.049014   3.565122  -3.843148   4.856274 -30.837174  -2.016709  -0.071424  31.257603   0.022844   0.023855 -15.496002  -4.514529   0.684890  -4.525791   0.001075  -0.001077  10.420450   0.708261   4.459583  18.727728   0.004812   0.007628 -28.629591  -1.439842  -1.295067   5.551793  -0.006462   0.010078
 -2.376455   0.867386   3.950494  -1.727422   6.279283  -1.032696   6.428273  -2.727177   1.530411   4.637007  -4.246041   1.259458  -2.074409   3.711536   0.244125   2.585314  -4.219964  12.280902   9.286704   1.616115  35.500468   0.084493  12.717175  -0.031877   5.100297   0.954466  -2.708552  -3.857107  -8.134686 -17.862764   0.611472 -10.758366 -33.443704   0.141086 -18.790073   0.046773   3.718368  -4.088648   4.815226 -32.244994  -1.936818  -1.090029  33.033655   0.019385   0.004148 -15.953739  -4.874143   0.733532  -4.389363   0.001213  -0.002304  10.766364   1.018904   3.589099  19.995667   0.003853   0.006090 -29.582719  -1.448396  -1.542529   4.265301  -0.008061   0.008184
 -2.376750   0.864975   3.952784  -2.040503   5.794523  -0.572550   6.982647  -2.635173   1.270084   4.797358  -4.225682   0.945163  -2.226144   3.698387   0.329760   2.476622  -4.146897  12.393376   9.496411   1.808123  36.507813   0.074937  13.420567  -0.027402   5.252648   0.938004  -2.584517  -3.811523  -8.254579 -17.899837   0.603495 -11.136680 -34.508601   0.126642 -19.689151   0.044088   3.845917  -4.193358   4.629601 -33.459029  -1.985941  -1.639396  34.785440   0.014550  -0.009942 -16.382710  -5.218452   0.777305  -4.289885   0.001144  -0.002841  11.005128   1.313485   3.094957  20.750255   0.002824   0.004243 -30.168803  -1.349797  -1.624642   3.797964  -0.006863   0.006515
